<?xml version="1.0" encoding="UTF-8" standalone="no"?>
<!-- Created with Inkscape (http://www.inkscape.org/) -->
<svg xmlns:dc="http://purl.org/dc/elements/1.1/" xmlns:cc="http://creativecommons.org/ns#" xmlns:rdf="http://www.w3.org/1999/02/22-rdf-syntax-ns#" xmlns:svg="http://www.w3.org/2000/svg" xmlns="http://www.w3.org/2000/svg" xmlns:sodipodi="http://sodipodi.sourceforge.net/DTD/sodipodi-0.dtd" xmlns:inkscape="http://www.inkscape.org/namespaces/inkscape" width="664" height="511" id="svg2" sodipodi:version="0.32" inkscape:version="0.47pre4 r22446" sodipodi:docname="ufrgs-logo-1.1.svg" inkscape:output_extension="org.inkscape.output.svg.inkscape" inkscape:export-filename="/home/bruno/logo_ufrgs1.png" inkscape:export-xdpi="600.03644" inkscape:export-ydpi="600.03644" version="1.1">
  <defs id="defs4">
    <inkscape:perspective sodipodi:type="inkscape:persp3d" inkscape:vp_x="0 : 526.18109 : 1" inkscape:vp_y="0 : 1000 : 0" inkscape:vp_z="744.09448 : 526.18109 : 1" inkscape:persp3d-origin="372.04724 : 350.78739 : 1" id="perspective10"/>
    <marker orient="auto" markerHeight="3" markerWidth="4" markerUnits="strokeWidth" refY="5" refX="10" viewBox="0 0 10 10" id="ArrowStart">
      <path id="path2846" d="M 10,0 0,5 10,10 z"/>
    </marker>
    <marker orient="auto" markerHeight="3" markerWidth="4" markerUnits="strokeWidth" refY="5" refX="0" viewBox="0 0 10 10" id="ArrowEnd">
      <path id="path2843" d="M 0,0 10,5 0,10 z"/>
    </marker>
    <inkscape:perspective id="perspective2873" inkscape:persp3d-origin="21.232651 : 13.889533 : 1" inkscape:vp_z="42.465302 : 20.834299 : 1" inkscape:vp_y="0 : 1000 : 0" inkscape:vp_x="0 : 20.834299 : 1" sodipodi:type="inkscape:persp3d"/>
    <inkscape:perspective id="perspective2961" inkscape:persp3d-origin="372.04724 : 350.78739 : 1" inkscape:vp_z="744.09448 : 526.18109 : 1" inkscape:vp_y="0 : 1000 : 0" inkscape:vp_x="0 : 526.18109 : 1" sodipodi:type="inkscape:persp3d"/>
  </defs>
  <sodipodi:namedview id="base" pagecolor="#ffffff" bordercolor="#666666" borderopacity="1.0" gridtolerance="10000" guidetolerance="10" objecttolerance="10" inkscape:pageopacity="0.0" inkscape:pageshadow="2" inkscape:zoom="0.46942014" inkscape:cx="372.04724" inkscape:cy="526.18109" inkscape:document-units="px" inkscape:current-layer="layer1" showgrid="false" inkscape:window-width="1280" inkscape:window-height="744" inkscape:window-x="-4" inkscape:window-y="-3" inkscape:window-maximized="1" showborder="false"/>
  <metadata id="metadata7">
    <rdf:RDF>
      <cc:Work rdf:about="">
        <dc:format>image/svg+xml</dc:format>
        <dc:type rdf:resource="http://purl.org/dc/dcmitype/StillImage"/>
        <dc:title/>
      </cc:Work>
    </rdf:RDF>
  </metadata>
  <g inkscape:label="Layer 1" inkscape:groupmode="layer" id="layer1" transform="translate(0,-541.36218)">
    <g id="g2868" transform="translate(301.33608,439.56717)"/>
    <g id="g2442" transform="matrix(5.0671227,0,0,5.0671227,-1529.0731,-312.8823)" inkscape:export-filename="/home/bruno/logo_ufrgs.png" inkscape:export-xdpi="600" inkscape:export-ydpi="600">
      <g id="g2427">
        <path id="path2854" d="m 361.73689,201.37754 c 1.9829,-10.5197 -5.9487,-6.8758 -9.451,-16.3655 -3.28341,-8.88445 5.7556,-19.76473 17.2926,-15.30961 -7.8673,1.21035 -9.5798,11.71721 -6.348,14.84611 6.5797,6.3994 6.0261,14.3568 -1.4936,16.829 z" style="fill:#ff0000;stroke:#000000;stroke-width:0"/>
        <path id="path2856" d="m 358.87839,207.50654 c 0.7855,0 1.4293,0.6438 1.4293,1.4293 0,0.7854 -0.6438,1.4035 -1.4293,1.4035 -0.7725,0 -1.4163,-0.6181 -1.4163,-1.4035 0,-0.7855 0.6438,-1.4293 1.4163,-1.4293 z" style="fill:#0073cc;stroke:#000000;stroke-width:0"/>
        <path id="path2858" d="m 366.83579,207.50654 c 0.7855,0 1.4164,0.6438 1.4164,1.4293 0,0.7854 -0.6309,1.4035 -1.4164,1.4035 -0.7854,0 -1.4163,-0.6181 -1.4163,-1.4035 0,-0.7855 0.6309,-1.4293 1.4163,-1.4293 z" style="fill:#0073cc;stroke:#000000;stroke-width:0"/>
        <path id="path2860" d="m 362.86999,207.50654 c 0.7597,0 1.4035,0.6438 1.4035,1.4293 0,0.7854 -0.6438,1.4035 -1.4035,1.4035 -0.7983,0 -1.4292,-0.6181 -1.4292,-1.4035 0,-0.7855 0.6309,-1.4293 1.4292,-1.4293 z" style="fill:#0073cc;stroke:#000000;stroke-width:0"/>
        <path id="path2862" d="m 384.08979,202.11154 -42.4653,0 c 14.1508,5.292 28.3274,5.3049 42.4653,0 z" style="fill:#0073cc;stroke:#000000;stroke-width:0"/>
        <path id="path2864" d="m 373.87909,176.66839 c -1.4808,0.65668 -4.3908,3.47655 0.1158,7.26215 5.3307,4.4808 2.4723,18.7861 -10.5068,17.447 6.2062,-1.0687 8.1119,-9.554 4.7899,-13.2881 -4.365,-4.8671 -0.8241,-11.87171 5.6011,-11.42105 z" style="fill:#ff0000;stroke:#000000;stroke-width:0"/>
        <path id="path2866" d="m 360.77119,201.19734 c -4.3135,-6.0003 -4.8671,-1.7254 -10.86739,-4.8929 -4.63538,-2.4465 -6.92732,-11.0992 0.68244,-15.7346 -2.26619,4.4165 -1.67389,9.4124 3.45075,11.7558 4.6097,2.1246 7.4553,3.0903 6.7342,8.8717 z" style="fill:#ff0000;stroke:#000000;stroke-width:0"/>
      </g>
      <g transform="scale(0.997266,1.0027415)" style="font-size:39.20182419px;font-style:normal;font-weight:normal;fill:#0073cc;fill-opacity:1;stroke:none;font-family:Bitstream Vera Sans" id="text2967">
        <path d="m 302.62147,226.10477 0,-14.81841 9.81673,0 0,14.89306 c -10e-6,1.72945 0.20528,2.92388 0.61588,3.58329 0.41057,0.64699 1.11354,0.97048 2.10891,0.97048 0.9829,0 1.68587,-0.33593 2.10892,-1.0078 0.42301,-0.67186 0.63452,-1.85385 0.63454,-3.54597 l 0,-14.89306 9.81673,0 0,14.81841 c -3e-5,1.94096 -0.13067,3.53975 -0.39193,4.79638 -0.24886,1.25665 -0.65323,2.308 -1.21309,3.15405 -1.09492,1.70455 -2.58796,3.01096 -4.47911,3.91922 -1.89121,0.90827 -4.04989,1.3624 -6.47606,1.3624 -2.43864,0 -4.60354,-0.45413 -6.49471,-1.3624 -1.89119,-0.90826 -3.38423,-2.21467 -4.47912,-3.91922 -0.54745,-0.83361 -0.94559,-1.87252 -1.19443,-3.11672 -0.24884,-1.24419 -0.37326,-2.85543 -0.37326,-4.83371" style="font-size:38.22177887px;font-variant:normal;font-weight:bold;font-stretch:normal;fill:#0073cc;font-family:Futura XBlk BT;-inkscape-font-specification:Futura XBlk BT Bold" id="path2909"/>
        <path d="m 332.8555,238.60896 0,-27.3226 18.27105,0 0,7.40921 -8.43566,0 0,3.1727 7.63315,0 0,6.99862 -7.63315,0 0,9.74207 -9.83539,0" style="font-size:38.22177887px;font-variant:normal;font-weight:bold;font-stretch:normal;fill:#0073cc;font-family:Futura XBlk BT;-inkscape-font-specification:Futura XBlk BT Bold" id="path2911"/>
        <path d="m 364.13465,218.32231 0,5.33761 1.53036,0 c 0.93314,1e-5 1.64855,-0.22394 2.14624,-0.67187 0.51011,-0.46034 0.76517,-1.11354 0.76519,-1.95961 -2e-5,-0.87092 -0.25508,-1.53657 -0.76519,-1.99694 -0.49769,-0.47278 -1.2131,-0.70917 -2.14624,-0.70919 l -1.53036,0 m -9.6301,20.28665 0,-27.3226 12.35489,0 c 3.58328,3e-5 6.32051,0.7901 8.21171,2.3702 1.89116,1.58016 2.83675,3.85704 2.83678,6.83065 -3e-5,1.94097 -0.47905,3.53976 -1.43705,4.79639 -0.94562,1.25665 -2.22714,1.99073 -3.84458,2.20223 l 7.29723,11.12313 -11.01116,0 -4.77772,-9.01422 0,9.01422 -9.6301,0" style="font-size:38.22177887px;font-variant:normal;font-weight:bold;font-stretch:normal;fill:#0073cc;font-family:Futura XBlk BT;-inkscape-font-specification:Futura XBlk BT Bold" id="path2913"/>
        <path d="m 399.29569,228.82956 -4.27382,0 0,-6.42006 15.09835,0 c 0.0248,0.5599 0.0435,0.97671 0.056,1.25042 0.0124,0.27374 0.0186,0.51635 0.0187,0.72785 -3e-5,1.56771 -0.14933,2.99853 -0.44791,4.29249 -0.29864,1.29397 -0.7341,2.43864 -1.30641,3.43399 -1.39353,2.33909 -3.19139,4.13074 -5.3936,5.37493 -2.20225,1.23176 -4.70309,1.84764 -7.50251,1.84764 -2.06539,0 -3.98767,-0.34216 -5.76686,-1.02646 -1.76678,-0.69675 -3.33446,-1.717 -4.70308,-3.06073 -1.35618,-1.34373 -2.38264,-2.88032 -3.07939,-4.60976 -0.69675,-1.72942 -1.04512,-3.60816 -1.04512,-5.63622 0,-2.04047 0.34837,-3.92543 1.04512,-5.65488 0.70919,-1.74186 1.73566,-3.27222 3.07939,-4.59109 1.35617,-1.33127 2.92386,-2.34529 4.70308,-3.04207 1.77919,-0.69672 3.70147,-1.0451 5.76686,-1.04512 2.79942,2e-5 5.28782,0.6159 7.46519,1.84763 2.17732,1.21934 3.95652,3.01098 5.33761,5.37494 l -8.75294,3.24736 c -0.46037,-0.75895 -1.01404,-1.32506 -1.661,-1.69834 -0.647,-0.37324 -1.3873,-0.55986 -2.2209,-0.55988 -1.45572,2e-5 -2.61905,0.55368 -3.48997,1.661 -0.85851,1.10735 -1.28776,2.59417 -1.28775,4.46045 -10e-6,1.92852 0.43546,3.42778 1.30641,4.49778 0.87092,1.05758 2.10268,1.58636 3.69527,1.58635 0.94557,1e-5 1.71075,-0.19906 2.29554,-0.59721 0.5972,-0.39814 0.9518,-0.95181 1.06379,-1.66101" style="font-size:38.22177887px;font-variant:normal;font-weight:bold;font-stretch:normal;fill:#0073cc;font-family:Futura XBlk BT;-inkscape-font-specification:Futura XBlk BT Bold" id="path2915"/>
        <path d="m 411.29599,236.27609 3.13538,-7.65182 c 1.40594,0.98293 2.65636,1.70456 3.75126,2.16491 1.10733,0.44791 2.14001,0.67187 3.09805,0.67186 0.67186,1e-5 1.20064,-0.12441 1.58635,-0.37326 0.38569,-0.26127 0.57854,-0.60965 0.57856,-1.04512 -2e-5,-0.75896 -0.96427,-1.33751 -2.89276,-1.73566 -0.62211,-0.13685 -1.10735,-0.24261 -1.45572,-0.31727 -2.04049,-0.49767 -3.60196,-1.38105 -4.6844,-2.65014 -1.08246,-1.26907 -1.62369,-2.8492 -1.62368,-4.7404 -1e-5,-2.93629 1.05134,-5.32515 3.15404,-7.16658 2.10269,-1.84139 4.85859,-2.7621 8.2677,-2.76212 1.56767,2e-5 3.11048,0.20532 4.62842,0.61587 1.5179,0.41062 3.04826,1.03271 4.59109,1.8663 l -2.98608,7.14792 c -0.94561,-0.69673 -1.89742,-1.22551 -2.85543,-1.58635 -0.94561,-0.37324 -1.86631,-0.55987 -2.76212,-0.55989 -0.68432,2e-5 -1.21311,0.11822 -1.58636,0.3546 -0.37327,0.22397 -0.5599,0.54124 -0.55989,0.95181 -1e-5,0.77142 1.36239,1.44951 4.0872,2.03426 0.43545,0.0996 0.77138,0.17421 1.0078,0.22396 1.87872,0.42304 3.35931,1.28776 4.44179,2.59415 1.08243,1.30642 1.62365,2.88655 1.62368,4.7404 -3e-5,3.02341 -1.09492,5.49314 -3.28469,7.4092 -2.17736,1.91607 -5.01413,2.8741 -8.51032,2.8741 -1.79165,0 -3.5833,-0.25506 -5.37493,-0.76518 -1.79165,-0.51012 -3.5833,-1.27531 -5.37494,-2.29555" style="font-size:38.22177887px;font-variant:normal;font-weight:bold;font-stretch:normal;fill:#0073cc;font-family:Futura XBlk BT;-inkscape-font-specification:Futura XBlk BT Bold" id="path2917"/>
      </g>
      <g id="g2436">
        <g transform="scale(0.9703489,1.0305572)" style="font-size:43.71256638px;font-style:normal;font-weight:normal;fill:#0073cc;fill-opacity:1;stroke:none;font-family:Bitstream Vera Sans" id="text2407">
          <path d="m 310.98462,242.82523 2.12373,0 0,3.79924 c 0,0.5585 0.0142,0.96048 0.0427,1.20594 0.0284,0.2419 0.0765,0.44467 0.14407,0.6083 0.0818,0.19921 0.22411,0.35218 0.42688,0.4589 0.20276,0.10316 0.45,0.15474 0.74171,0.15474 0.29169,0 0.53715,-0.0516 0.73636,-0.15474 0.20277,-0.10672 0.34684,-0.25969 0.43222,-0.4589 0.0676,-0.16363 0.11561,-0.3664 0.14407,-0.6083 0.0285,-0.24546 0.0427,-0.64744 0.0427,-1.20594 l 0,-0.5336 0,-3.26564 2.1184,0 0,4.13007 c -10e-6,0.85732 -0.0516,1.49053 -0.15475,1.89962 -0.10317,0.40554 -0.27748,0.75238 -0.52293,1.04052 -0.2668,0.3166 -0.63321,0.55495 -1.09921,0.71503 -0.46602,0.15652 -1.03164,0.23478 -1.69685,0.23478 -0.66879,0 -1.23618,-0.0783 -1.70219,-0.23478 -0.46246,-0.16008 -0.82886,-0.39843 -1.09922,-0.71503 -0.2419,-0.28814 -0.41621,-0.63498 -0.52293,-1.04052 -0.10316,-0.40909 -0.15474,-1.0423 -0.15474,-1.89962 l 0,-0.81107 0,-3.319" style="font-size:10.92814159px;font-variant:normal;font-weight:bold;font-stretch:normal;text-align:justify;text-anchor:start;fill:#0073cc;font-family:Futura Md BT;-inkscape-font-specification:Futura Md BT Bold" id="path2836"/>
          <path d="m 319.54891,250.63715 0,-7.81192 2.05436,0 2.95081,4.01802 c 0.0569,0.0818 0.14941,0.24723 0.27748,0.49624 0.13161,0.24546 0.27568,0.53894 0.43221,0.88044 -0.0427,-0.32371 -0.0747,-0.61185 -0.0961,-0.86443 -0.0178,-0.25257 -0.0267,-0.47668 -0.0267,-0.67233 l 0,-3.85794 2.0437,0 0,7.81192 -2.0437,0 -2.95081,-4.03403 c -0.0605,-0.0818 -0.15652,-0.24545 -0.28814,-0.49091 -0.12807,-0.24901 -0.26858,-0.54071 -0.42155,-0.8751 0.0427,0.32728 0.0729,0.6172 0.0907,0.86977 0.0213,0.25257 0.032,0.47668 0.032,0.67233 l 0,3.85794 -2.05436,0" style="font-size:10.92814159px;font-variant:normal;font-weight:bold;font-stretch:normal;text-align:justify;text-anchor:start;fill:#0073cc;font-family:Futura Md BT;-inkscape-font-specification:Futura Md BT Bold" id="path2838"/>
          <path d="m 328.90826,250.63715 0,-7.81192 2.15042,0 0,7.81192 -2.15042,0" style="font-size:10.92814159px;font-variant:normal;font-weight:bold;font-stretch:normal;text-align:justify;text-anchor:start;fill:#0073cc;font-family:Futura Md BT;-inkscape-font-specification:Futura Md BT Bold" id="path2840"/>
          <path d="m 335.01799,250.63715 -3.27631,-7.81192 2.26247,0 1.56345,4.37019 c 0.0142,0.0462 0.0427,0.15831 0.0854,0.33617 0.0462,0.17431 0.10494,0.41088 0.17609,0.70969 0.0569,-0.23834 0.11027,-0.45356 0.16008,-0.64566 0.0498,-0.19209 0.0872,-0.32549 0.11205,-0.4002 l 1.55278,-4.37019 2.26247,0 -3.27631,7.81192 -1.62215,0" style="font-size:10.92814159px;font-variant:normal;font-weight:bold;font-stretch:normal;text-align:justify;text-anchor:start;fill:#0073cc;font-family:Futura Md BT;-inkscape-font-specification:Futura Md BT Bold" id="path2842"/>
          <path d="m 340.55143,250.63715 0,-7.81192 4.7864,0 0,1.71286 -2.71069,0 0,1.35535 2.55595,0 0,1.6755 -2.55595,0 0,1.318 2.71069,0 0,1.75021 -4.7864,0" style="font-size:10.92814159px;font-variant:normal;font-weight:bold;font-stretch:normal;text-align:justify;text-anchor:start;fill:#0073cc;font-family:Futura Md BT;-inkscape-font-specification:Futura Md BT Bold" id="path2844"/>
          <path d="m 346.7412,250.63715 0,-7.81192 2.22511,0 c 0.87155,1e-5 1.47807,0.0409 1.81958,0.12273 0.34506,0.0783 0.6421,0.21167 0.89112,0.4002 0.28102,0.21345 0.49624,0.48558 0.64565,0.81641 0.15296,0.33084 0.22944,0.69547 0.22945,1.09388 -1e-5,0.60475 -0.14941,1.09744 -0.44822,1.47808 -0.29527,0.37708 -0.72748,0.62787 -1.29665,0.75237 l 2.12906,3.14825 -2.40654,0 -1.79289,-3.05754 0,3.05754 -1.99567,0 m 1.99567,-4.1194 0.39486,0 c 0.45889,0 0.79328,-0.0783 1.00317,-0.23479 0.21344,-0.15651 0.32016,-0.40197 0.32016,-0.73636 0,-0.39131 -0.0996,-0.66878 -0.29882,-0.83242 -0.19565,-0.16719 -0.52649,-0.25079 -0.99249,-0.25079 l -0.42688,0 0,2.05436" style="font-size:10.92814159px;font-variant:normal;font-weight:bold;font-stretch:normal;text-align:justify;text-anchor:start;fill:#0073cc;font-family:Futura Md BT;-inkscape-font-specification:Futura Md BT Bold" id="path2847"/>
          <path d="m 354.08888,248.11321 c 0.3166,0.3593 0.62787,0.62788 0.9338,0.80574 0.30949,0.17787 0.6172,0.2668 0.92313,0.2668 0.28458,0 0.51759,-0.0765 0.69902,-0.22945 0.18497,-0.15296 0.27747,-0.34683 0.27747,-0.58162 0,-0.25968 -0.08,-0.45889 -0.24012,-0.59763 -0.15653,-0.14229 -0.51404,-0.28814 -1.07254,-0.43756 -0.76483,-0.20632 -1.30554,-0.4749 -1.62214,-0.80573 -0.31661,-0.33083 -0.47491,-0.78439 -0.47491,-1.36068 0,-0.74704 0.24901,-1.35534 0.74704,-1.82492 0.50158,-0.47312 1.1508,-0.70968 1.94764,-0.70969 0.43044,10e-6 0.83775,0.0587 1.22195,0.17609 0.38774,0.11384 0.75415,0.28815 1.09922,0.52293 l -0.667,1.53143 c -0.24191,-0.20632 -0.49092,-0.36106 -0.74704,-0.46423 -0.25258,-0.10671 -0.50337,-0.16007 -0.75238,-0.16008 -0.25613,1e-5 -0.46424,0.0623 -0.62431,0.18676 -0.16009,0.12096 -0.24013,0.27748 -0.24012,0.46957 -10e-6,0.19566 0.0694,0.35218 0.2081,0.46957 0.14229,0.11739 0.41443,0.22945 0.81641,0.33617 l 0.096,0.0267 c 0.86798,0.23478 1.43893,0.49269 1.71285,0.77372 0.18498,0.1921 0.3255,0.42332 0.42155,0.69368 0.096,0.2668 0.14407,0.56384 0.14407,0.89111 0,0.82886 -0.27214,1.49586 -0.81641,2.001 -0.54427,0.50159 -1.26997,0.75238 -2.17709,0.75238 -0.54427,0 -1.04052,-0.0925 -1.48874,-0.27747 -0.44467,-0.18498 -0.87333,-0.47491 -1.28598,-0.86977 l 0.96048,-1.5848" style="font-size:10.92814159px;font-variant:normal;font-weight:bold;font-stretch:normal;text-align:justify;text-anchor:start;fill:#0073cc;font-family:Futura Md BT;-inkscape-font-specification:Futura Md BT Bold" id="path2849"/>
          <path d="m 360.15592,250.63715 0,-7.81192 2.15041,0 0,7.81192 -2.15041,0" style="font-size:10.92814159px;font-variant:normal;font-weight:bold;font-stretch:normal;text-align:justify;text-anchor:start;fill:#0073cc;font-family:Futura Md BT;-inkscape-font-specification:Futura Md BT Bold" id="path2851"/>
          <path d="m 364.02986,250.63715 0,-7.81192 1.62748,0 c 1.21305,1e-5 2.07037,0.0569 2.57196,0.17075 0.50514,0.11385 0.94802,0.30416 1.32866,0.57096 0.49447,0.34507 0.86977,0.78795 1.1259,1.32866 0.25612,0.53717 0.38419,1.15081 0.38419,1.84093 0,0.69012 -0.12807,1.30554 -0.38419,1.84625 -0.25613,0.53716 -0.63143,0.97827 -1.1259,1.32333 -0.37708,0.26325 -0.80752,0.45179 -1.29131,0.56562 -0.4838,0.11028 -1.2344,0.16542 -2.25179,0.16542 l -0.35752,0 -1.62748,0 m 2.10772,-1.75021 0.35752,0 c 0.83597,0 1.44605,-0.17075 1.83025,-0.51226 0.38418,-0.34506 0.57628,-0.89111 0.57629,-1.63815 -10e-6,-0.74704 -0.19211,-1.29487 -0.57629,-1.64349 -0.3842,-0.34862 -0.99428,-0.52293 -1.83025,-0.52293 l -0.35752,0 0,4.31683" style="font-size:10.92814159px;font-variant:normal;font-weight:bold;font-stretch:normal;text-align:justify;text-anchor:start;fill:#0073cc;font-family:Futura Md BT;-inkscape-font-specification:Futura Md BT Bold" id="path2853"/>
          <path d="m 374.26966,247.71835 2.11839,0 -0.79506,-2.57729 c -0.0249,-0.0783 -0.0587,-0.20454 -0.10139,-0.37886 -0.0427,-0.1743 -0.0978,-0.39841 -0.16541,-0.67233 -0.0462,0.1921 -0.0925,0.3753 -0.13874,0.5496 -0.0427,0.17432 -0.0872,0.34151 -0.1334,0.50159 l -0.78439,2.57729 m -2.98283,2.9188 2.69468,-7.81192 2.66801,0 2.70002,7.81192 -2.1184,0 -0.39486,-1.39804 -3.02552,0 -0.40553,1.39804 -2.1184,0" style="font-size:10.92814159px;font-variant:normal;font-weight:bold;font-stretch:normal;text-align:justify;text-anchor:start;fill:#0073cc;font-family:Futura Md BT;-inkscape-font-specification:Futura Md BT Bold" id="path2855"/>
          <path d="m 380.10191,250.63715 0,-7.81192 1.62748,0 c 1.21305,1e-5 2.07037,0.0569 2.57196,0.17075 0.50513,0.11385 0.94802,0.30416 1.32866,0.57096 0.49447,0.34507 0.86976,0.78795 1.1259,1.32866 0.25612,0.53717 0.38419,1.15081 0.38419,1.84093 0,0.69012 -0.12807,1.30554 -0.38419,1.84625 -0.25614,0.53716 -0.63143,0.97827 -1.1259,1.32333 -0.37708,0.26325 -0.80752,0.45179 -1.29131,0.56562 -0.4838,0.11028 -1.2344,0.16542 -2.2518,0.16542 l -0.35751,0 -1.62748,0 m 2.10772,-1.75021 0.35752,0 c 0.83597,0 1.44605,-0.17075 1.83025,-0.51226 0.38418,-0.34506 0.57628,-0.89111 0.57628,-1.63815 0,-0.74704 -0.1921,-1.29487 -0.57628,-1.64349 -0.3842,-0.34862 -0.99428,-0.52293 -1.83025,-0.52293 l -0.35752,0 0,4.31683" style="font-size:10.92814159px;font-variant:normal;font-weight:bold;font-stretch:normal;text-align:justify;text-anchor:start;fill:#0073cc;font-family:Futura Md BT;-inkscape-font-specification:Futura Md BT Bold" id="path2857"/>
          <path d="m 388.46877,250.63715 0,-7.81192 4.7864,0 0,1.71286 -2.71069,0 0,1.35535 2.55594,0 0,1.6755 -2.55594,0 0,1.318 2.71069,0 0,1.75021 -4.7864,0" style="font-size:10.92814159px;font-variant:normal;font-weight:bold;font-stretch:normal;text-align:justify;text-anchor:start;fill:#0073cc;font-family:Futura Md BT;-inkscape-font-specification:Futura Md BT Bold" id="path2859"/>
          <path d="m 398.07358,250.63715 0,-7.81192 4.7864,0 0,1.71286 -2.71069,0 0,1.35535 2.55595,0 0,1.6755 -2.55595,0 0,3.06821 -2.07571,0" style="font-size:10.92814159px;font-variant:normal;font-weight:bold;font-stretch:normal;text-align:justify;text-anchor:start;fill:#0073cc;font-family:Futura Md BT;-inkscape-font-specification:Futura Md BT Bold" id="path2861"/>
          <path d="m 404.02857,250.63715 0,-7.81192 4.7864,0 0,1.71286 -2.71069,0 0,1.35535 2.55594,0 0,1.6755 -2.55594,0 0,1.318 2.71069,0 0,1.75021 -4.7864,0" style="font-size:10.92814159px;font-variant:normal;font-weight:bold;font-stretch:normal;text-align:justify;text-anchor:start;fill:#0073cc;font-family:Futura Md BT;-inkscape-font-specification:Futura Md BT Bold" id="path2863"/>
          <path d="m 410.21833,250.63715 0,-7.81192 1.62749,0 c 1.21305,1e-5 2.07036,0.0569 2.57195,0.17075 0.50514,0.11385 0.94803,0.30416 1.32867,0.57096 0.49446,0.34507 0.86976,0.78795 1.12589,1.32866 0.25613,0.53717 0.38419,1.15081 0.3842,1.84093 -10e-6,0.69012 -0.12807,1.30554 -0.3842,1.84625 -0.25613,0.53716 -0.63143,0.97827 -1.12589,1.32333 -0.37709,0.26325 -0.80752,0.45179 -1.29132,0.56562 -0.4838,0.11028 -1.2344,0.16542 -2.25179,0.16542 l -0.35751,0 -1.62749,0 m 2.10773,-1.75021 0.35751,0 c 0.83597,0 1.44605,-0.17075 1.83025,-0.51226 0.38419,-0.34506 0.57628,-0.89111 0.57629,-1.63815 -10e-6,-0.74704 -0.1921,-1.29487 -0.57629,-1.64349 -0.3842,-0.34862 -0.99428,-0.52293 -1.83025,-0.52293 l -0.35751,0 0,4.31683" style="font-size:10.92814159px;font-variant:normal;font-weight:bold;font-stretch:normal;text-align:justify;text-anchor:start;fill:#0073cc;font-family:Futura Md BT;-inkscape-font-specification:Futura Md BT Bold" id="path2865"/>
          <path d="m 418.58519,250.63715 0,-7.81192 4.7864,0 0,1.71286 -2.71069,0 0,1.35535 2.55595,0 0,1.6755 -2.55595,0 0,1.318 2.71069,0 0,1.75021 -4.7864,0" style="font-size:10.92814159px;font-variant:normal;font-weight:bold;font-stretch:normal;text-align:justify;text-anchor:start;fill:#0073cc;font-family:Futura Md BT;-inkscape-font-specification:Futura Md BT Bold" id="path2867"/>
          <path d="m 424.77496,250.63715 0,-7.81192 2.22511,0 c 0.87155,1e-5 1.47807,0.0409 1.81958,0.12273 0.34506,0.0783 0.6421,0.21167 0.89112,0.4002 0.28102,0.21345 0.49624,0.48558 0.64565,0.81641 0.15296,0.33084 0.22944,0.69547 0.22945,1.09388 -10e-6,0.60475 -0.14941,1.09744 -0.44822,1.47808 -0.29527,0.37708 -0.72748,0.62787 -1.29665,0.75237 l 2.12906,3.14825 -2.40654,0 -1.79289,-3.05754 0,3.05754 -1.99567,0 m 1.99567,-4.1194 0.39486,0 c 0.45889,0 0.79328,-0.0783 1.00317,-0.23479 0.21344,-0.15651 0.32016,-0.40197 0.32016,-0.73636 0,-0.39131 -0.0996,-0.66878 -0.29882,-0.83242 -0.19565,-0.16719 -0.52649,-0.25079 -0.99249,-0.25079 l -0.42688,0 0,2.05436" style="font-size:10.92814159px;font-variant:normal;font-weight:bold;font-stretch:normal;text-align:justify;text-anchor:start;fill:#0073cc;font-family:Futura Md BT;-inkscape-font-specification:Futura Md BT Bold" id="path2869"/>
          <path d="m 433.84083,247.71835 2.1184,0 -0.79507,-2.57729 c -0.0249,-0.0783 -0.0587,-0.20454 -0.10138,-0.37886 -0.0427,-0.1743 -0.0978,-0.39841 -0.16542,-0.67233 -0.0462,0.1921 -0.0925,0.3753 -0.13873,0.5496 -0.0427,0.17432 -0.0872,0.34151 -0.1334,0.50159 l -0.7844,2.57729 m -2.98282,2.9188 2.69468,-7.81192 2.668,0 2.70002,7.81192 -2.11839,0 -0.39487,-1.39804 -3.02551,0 -0.40554,1.39804 -2.11839,0" style="font-size:10.92814159px;font-variant:normal;font-weight:bold;font-stretch:normal;text-align:justify;text-anchor:start;fill:#0073cc;font-family:Futura Md BT;-inkscape-font-specification:Futura Md BT Bold" id="path2871"/>
          <path d="m 439.67308,250.63715 0,-7.81192 2.12907,0 0,5.987 2.64666,0 0,1.82492 -4.77573,0" style="font-size:10.92814159px;font-variant:normal;font-weight:bold;font-stretch:normal;text-align:justify;text-anchor:start;fill:#0073cc;font-family:Futura Md BT;-inkscape-font-specification:Futura Md BT Bold" id="path2873"/>
        </g>
        <g transform="scale(0.9739695,1.0267262)" style="font-size:42.88909531px;font-style:normal;font-weight:normal;fill:#0073cc;fill-opacity:1;stroke:none;font-family:Bitstream Vera Sans" id="text2415">
          <path d="m 309.85281,262.21423 0,-7.66475 1.59682,0 c 1.1902,1e-5 2.03136,0.0559 2.5235,0.16754 0.49562,0.1117 0.93017,0.29843 1.30364,0.5602 0.48515,0.33856 0.85338,0.77311 1.10469,1.30363 0.25129,0.52705 0.37694,1.12913 0.37695,1.80624 -1e-5,0.67713 -0.12566,1.28095 -0.37695,1.81148 -0.25131,0.52704 -0.61954,0.95984 -1.10469,1.2984 -0.36998,0.25829 -0.79231,0.44327 -1.26699,0.55496 -0.47469,0.1082 -1.21114,0.1623 -2.20937,0.1623 l -0.35078,0 -1.59682,0 m 2.06801,-1.71724 0.35078,0 c 0.82022,1e-5 1.41881,-0.16753 1.79577,-0.5026 0.37695,-0.33856 0.56543,-0.87433 0.56544,-1.6073 -1e-5,-0.73296 -0.18849,-1.27047 -0.56544,-1.61253 -0.37696,-0.34204 -0.97555,-0.51307 -1.79577,-0.51307 l -0.35078,0 0,4.2355" style="font-size:10.72227383px;font-variant:normal;font-weight:bold;font-stretch:normal;fill:#0073cc;font-family:Futura Md BT;-inkscape-font-specification:Futura Md BT Bold" id="path2876"/>
          <path d="m 325.93098,258.39756 c -10e-6,0.55148 -0.10123,1.06805 -0.30366,1.54971 -0.20244,0.48166 -0.49737,0.91272 -0.88479,1.29316 -0.39093,0.37696 -0.83769,0.6684 -1.34029,0.87433 -0.50261,0.20244 -1.02441,0.30366 -1.56541,0.30366 -0.54798,0 -1.07327,-0.10122 -1.57588,-0.30366 -0.49912,-0.20593 -0.9389,-0.49737 -1.31934,-0.87433 -0.39441,-0.38044 -0.69458,-0.81324 -0.9005,-1.2984 -0.20244,-0.48515 -0.30366,-0.99997 -0.30366,-1.54447 0,-0.54797 0.10122,-1.06279 0.30366,-1.54446 0.20592,-0.48515 0.50609,-0.91795 0.9005,-1.2984 0.38044,-0.37695 0.82022,-0.66665 1.31934,-0.86909 0.50261,-0.20593 1.0279,-0.30889 1.57588,-0.3089 0.54449,1e-5 1.06804,0.10297 1.57065,0.3089 0.50609,0.20244 0.9511,0.49214 1.33505,0.86909 0.38393,0.37696 0.67711,0.80801 0.87956,1.29316 0.20592,0.48516 0.30888,1.00173 0.30889,1.5497 m -4.09415,2.25126 c 0.57939,0 1.05757,-0.2129 1.43453,-0.63873 0.38044,-0.42581 0.57066,-0.96332 0.57066,-1.61253 0,-0.64221 -0.19197,-1.17797 -0.5759,-1.60729 -0.38394,-0.4293 -0.86037,-0.64396 -1.42929,-0.64396 -0.57939,0 -1.05931,0.21466 -1.43976,0.64396 -0.37695,0.42583 -0.56543,0.96159 -0.56543,1.60729 0,0.65619 0.18673,1.19544 0.5602,1.61777 0.37346,0.42233 0.85512,0.63349 1.44499,0.63349" style="font-size:10.72227383px;font-variant:normal;font-weight:bold;font-stretch:normal;fill:#0073cc;font-family:Futura Md BT;-inkscape-font-specification:Futura Md BT Bold" id="path2878"/>
          <path d="m 330.58533,262.21423 0,-7.66475 2.1832,0 c 0.85512,1e-5 1.45022,0.0402 1.7853,0.12042 0.33855,0.0768 0.62999,0.20768 0.87432,0.39266 0.27573,0.20943 0.4869,0.47644 0.6335,0.80103 0.15007,0.32461 0.22512,0.68236 0.22512,1.07327 0,0.59336 -0.1466,1.07677 -0.43978,1.45023 -0.2897,0.36998 -0.71378,0.61605 -1.27222,0.73821 l 2.08896,3.08893 -2.36121,0 -1.75912,-2.99993 0,2.99993 -1.95807,0 m 1.95807,-4.04179 0.38743,0 c 0.45024,0 0.77833,-0.0768 0.98427,-0.23036 0.20941,-0.15357 0.31412,-0.3944 0.31413,-0.7225 -10e-6,-0.38393 -0.0977,-0.65617 -0.29319,-0.81674 -0.19197,-0.16403 -0.51657,-0.24606 -0.9738,-0.24606 l -0.41884,0 0,2.01566" style="font-size:10.72227383px;font-variant:normal;font-weight:bold;font-stretch:normal;fill:#0073cc;font-family:Futura Md BT;-inkscape-font-specification:Futura Md BT Bold" id="path2880"/>
          <path d="m 337.50664,262.21423 0,-7.66475 2.1099,0 0,7.66475 -2.1099,0" style="font-size:10.72227383px;font-variant:normal;font-weight:bold;font-stretch:normal;fill:#0073cc;font-family:Futura Md BT;-inkscape-font-specification:Futura Md BT Bold" id="path2882"/>
          <path d="m 349.17654,258.39756 c -10e-6,0.55148 -0.10123,1.06805 -0.30366,1.54971 -0.20245,0.48166 -0.49738,0.91272 -0.8848,1.29316 -0.39092,0.37696 -0.83768,0.6684 -1.34028,0.87433 -0.50261,0.20244 -1.02442,0.30366 -1.56541,0.30366 -0.54799,0 -1.07328,-0.10122 -1.57588,-0.30366 -0.49912,-0.20593 -0.9389,-0.49737 -1.31935,-0.87433 -0.3944,-0.38044 -0.69457,-0.81324 -0.9005,-1.2984 -0.20244,-0.48515 -0.30366,-0.99997 -0.30366,-1.54447 0,-0.54797 0.10122,-1.06279 0.30366,-1.54446 0.20593,-0.48515 0.5061,-0.91795 0.9005,-1.2984 0.38045,-0.37695 0.82023,-0.66665 1.31935,-0.86909 0.5026,-0.20593 1.02789,-0.30889 1.57588,-0.3089 0.54448,1e-5 1.06803,0.10297 1.57064,0.3089 0.50609,0.20244 0.95111,0.49214 1.33505,0.86909 0.38393,0.37696 0.67712,0.80801 0.87956,1.29316 0.20592,0.48516 0.30889,1.00173 0.3089,1.5497 m -4.09415,2.25126 c 0.57939,0 1.05756,-0.2129 1.43452,-0.63873 0.38044,-0.42581 0.57066,-0.96332 0.57067,-1.61253 -10e-6,-0.64221 -0.19198,-1.17797 -0.5759,-1.60729 -0.38395,-0.4293 -0.86037,-0.64396 -1.42929,-0.64396 -0.5794,0 -1.05932,0.21466 -1.43976,0.64396 -0.37696,0.42583 -0.56544,0.96159 -0.56543,1.60729 -1e-5,0.65619 0.18673,1.19544 0.56019,1.61777 0.37347,0.42233 0.85513,0.63349 1.445,0.63349" style="font-size:10.72227383px;font-variant:normal;font-weight:bold;font-stretch:normal;fill:#0073cc;font-family:Futura Md BT;-inkscape-font-specification:Futura Md BT Bold" id="path2884"/>
          <path d="m 357.47478,259.39231 0,-1.6073 4.10462,0 c 0.003,0.0524 0.005,0.10995 0.005,0.17277 0.003,0.0628 0.005,0.15533 0.005,0.27748 0,1.31935 -0.34904,2.34376 -1.04709,3.07323 -0.69458,0.72599 -1.67362,1.08899 -2.93711,1.08899 -0.62128,0 -1.1745,-0.0925 -1.65965,-0.27749 -0.48167,-0.18847 -0.91272,-0.47468 -1.29316,-0.85861 -0.363,-0.36649 -0.64572,-0.79929 -0.84815,-1.29841 -0.19895,-0.5026 -0.29843,-1.02789 -0.29843,-1.57588 0,-0.5724 0.0977,-1.0977 0.29319,-1.57588 0.19546,-0.48166 0.4869,-0.91446 0.87433,-1.2984 0.38393,-0.37346 0.82371,-0.65617 1.31934,-0.84815 0.49911,-0.19196 1.03662,-0.28794 1.61253,-0.28795 0.75041,1e-5 1.41357,0.14835 1.98948,0.44502 0.57939,0.29668 1.06629,0.73821 1.4607,1.32458 l -1.81147,0.86909 c -0.21641,-0.29668 -0.46073,-0.51657 -0.73297,-0.65967 -0.26876,-0.14659 -0.57067,-0.21989 -0.90574,-0.21989 -0.62477,0 -1.11691,0.20942 -1.47641,0.62825 -0.3595,0.41536 -0.53926,0.98428 -0.53925,1.70677 -10e-6,0.72948 0.17975,1.30364 0.53925,1.72248 0.3595,0.41884 0.85164,0.62826 1.47641,0.62825 0.53052,10e-6 0.97205,-0.12914 1.32458,-0.38742 0.356,-0.26177 0.56368,-0.60906 0.62302,-1.04186 l -2.07849,0" style="font-size:10.72227383px;font-variant:normal;font-weight:bold;font-stretch:normal;fill:#0073cc;font-family:Futura Md BT;-inkscape-font-specification:Futura Md BT Bold" id="path2886"/>
          <path d="m 362.8778,262.21423 0,-7.66475 2.1832,0 c 0.85512,1e-5 1.45022,0.0402 1.7853,0.12042 0.33856,0.0768 0.63,0.20768 0.87433,0.39266 0.27572,0.20943 0.48689,0.47644 0.63349,0.80103 0.15008,0.32461 0.22512,0.68236 0.22512,1.07327 0,0.59336 -0.1466,1.07677 -0.43978,1.45023 -0.2897,0.36998 -0.71377,0.61605 -1.27222,0.73821 l 2.08896,3.08893 -2.3612,0 -1.75913,-2.99993 0,2.99993 -1.95807,0 m 1.95807,-4.04179 0.38743,0 c 0.45025,0 0.77834,-0.0768 0.98427,-0.23036 0.20942,-0.15357 0.31412,-0.3944 0.31413,-0.7225 -1e-5,-0.38393 -0.0977,-0.65617 -0.29319,-0.81674 -0.19197,-0.16403 -0.51657,-0.24606 -0.9738,-0.24606 l -0.41884,0 0,2.01566" style="font-size:10.72227383px;font-variant:normal;font-weight:bold;font-stretch:normal;fill:#0073cc;font-family:Futura Md BT;-inkscape-font-specification:Futura Md BT Bold" id="path2888"/>
          <path d="m 371.77289,259.35042 2.07849,0 -0.78009,-2.52874 c -0.0244,-0.0768 -0.0576,-0.20068 -0.0995,-0.37172 -0.0419,-0.17102 -0.096,-0.39091 -0.1623,-0.65967 -0.0454,0.18849 -0.0908,0.36824 -0.13612,0.53926 -0.0419,0.17103 -0.0855,0.33507 -0.13089,0.49213 l -0.76962,2.52874 m -2.92663,2.86381 2.64392,-7.66475 2.61774,0 2.64915,7.66475 -2.07848,0 -0.38743,-1.37169 -2.96852,0 -0.3979,1.37169 -2.07848,0" style="font-size:10.72227383px;font-variant:normal;font-weight:bold;font-stretch:normal;fill:#0073cc;font-family:Futura Md BT;-inkscape-font-specification:Futura Md BT Bold" id="path2890"/>
          <path d="m 377.49528,262.21423 0,-7.66475 2.01566,0 2.89522,3.94232 c 0.0558,0.0803 0.14659,0.24258 0.27225,0.4869 0.12914,0.24084 0.27049,0.52879 0.42407,0.86386 -0.0419,-0.31762 -0.0733,-0.60033 -0.0942,-0.84815 -0.0174,-0.24781 -0.0262,-0.4677 -0.0262,-0.65967 l 0,-3.78526 2.00519,0 0,7.66475 -2.00519,0 -2.89523,-3.95802 c -0.0593,-0.0803 -0.15357,-0.24083 -0.28271,-0.48167 -0.12566,-0.24432 -0.26352,-0.53052 -0.41361,-0.85862 0.0419,0.32112 0.0716,0.60558 0.089,0.85339 0.0209,0.24781 0.0314,0.4677 0.0314,0.65967 l 0,3.78525 -2.01566,0" style="font-size:10.72227383px;font-variant:normal;font-weight:bold;font-stretch:normal;fill:#0073cc;font-family:Futura Md BT;-inkscape-font-specification:Futura Md BT Bold" id="path2892"/>
          <path d="m 386.62596,262.21423 0,-7.66475 1.59683,0 c 1.19019,1e-5 2.03136,0.0559 2.5235,0.16754 0.49562,0.1117 0.93016,0.29843 1.30364,0.5602 0.48514,0.33856 0.85337,0.77311 1.10468,1.30363 0.2513,0.52705 0.37695,1.12913 0.37696,1.80624 -10e-6,0.67713 -0.12566,1.28095 -0.37696,1.81148 -0.25131,0.52704 -0.61954,0.95984 -1.10468,1.2984 -0.36998,0.25829 -0.79231,0.44327 -1.26699,0.55496 -0.47469,0.1082 -1.21115,0.1623 -2.20938,0.1623 l -0.35077,0 -1.59683,0 m 2.06802,-1.71724 0.35078,0 c 0.82022,1e-5 1.41881,-0.16753 1.79577,-0.5026 0.37695,-0.33856 0.56543,-0.87433 0.56543,-1.6073 0,-0.73296 -0.18848,-1.27047 -0.56543,-1.61253 -0.37696,-0.34204 -0.97555,-0.51307 -1.79577,-0.51307 l -0.35078,0 0,4.2355" style="font-size:10.72227383px;font-variant:normal;font-weight:bold;font-stretch:normal;fill:#0073cc;font-family:Futura Md BT;-inkscape-font-specification:Futura Md BT Bold" id="path2894"/>
          <path d="m 394.83521,262.21423 0,-7.66475 4.69623,0 0,1.68059 -2.65963,0 0,1.32982 2.5078,0 0,1.64394 -2.5078,0 0,1.29316 2.65963,0 0,1.71724 -4.69623,0" style="font-size:10.72227383px;font-variant:normal;font-weight:bold;font-stretch:normal;fill:#0073cc;font-family:Futura Md BT;-inkscape-font-specification:Futura Md BT Bold" id="path2896"/>
          <path d="m 404.25908,262.21423 0,-7.66475 1.59682,0 c 1.1902,1e-5 2.03137,0.0559 2.52351,0.16754 0.49562,0.1117 0.93016,0.29843 1.30363,0.5602 0.48515,0.33856 0.85338,0.77311 1.10469,1.30363 0.2513,0.52705 0.37695,1.12913 0.37696,1.80624 -1e-5,0.67713 -0.12566,1.28095 -0.37696,1.81148 -0.25131,0.52704 -0.61954,0.95984 -1.10469,1.2984 -0.36998,0.25829 -0.79231,0.44327 -1.26698,0.55496 -0.47469,0.1082 -1.21115,0.1623 -2.20938,0.1623 l -0.35078,0 -1.59682,0 m 2.06802,-1.71724 0.35077,0 c 0.82023,1e-5 1.41882,-0.16753 1.79578,-0.5026 0.37695,-0.33856 0.56542,-0.87433 0.56543,-1.6073 -1e-5,-0.73296 -0.18848,-1.27047 -0.56543,-1.61253 -0.37696,-0.34204 -0.97555,-0.51307 -1.79578,-0.51307 l -0.35077,0 0,4.2355" style="font-size:10.72227383px;font-variant:normal;font-weight:bold;font-stretch:normal;fill:#0073cc;font-family:Futura Md BT;-inkscape-font-specification:Futura Md BT Bold" id="path2898"/>
          <path d="m 420.33725,258.39756 c -10e-6,0.55148 -0.10123,1.06805 -0.30366,1.54971 -0.20244,0.48166 -0.49738,0.91272 -0.88479,1.29316 -0.39093,0.37696 -0.83769,0.6684 -1.34029,0.87433 -0.50261,0.20244 -1.02441,0.30366 -1.56541,0.30366 -0.54798,0 -1.07328,-0.10122 -1.57588,-0.30366 -0.49912,-0.20593 -0.9389,-0.49737 -1.31934,-0.87433 -0.39441,-0.38044 -0.69458,-0.81324 -0.90051,-1.2984 -0.20243,-0.48515 -0.30365,-0.99997 -0.30365,-1.54447 0,-0.54797 0.10122,-1.06279 0.30365,-1.54446 0.20593,-0.48515 0.5061,-0.91795 0.90051,-1.2984 0.38044,-0.37695 0.82022,-0.66665 1.31934,-0.86909 0.5026,-0.20593 1.0279,-0.30889 1.57588,-0.3089 0.54449,1e-5 1.06803,0.10297 1.57065,0.3089 0.50609,0.20244 0.9511,0.49214 1.33505,0.86909 0.38392,0.37696 0.67711,0.80801 0.87956,1.29316 0.20592,0.48516 0.30888,1.00173 0.30889,1.5497 m -4.09415,2.25126 c 0.57939,0 1.05756,-0.2129 1.43452,-0.63873 0.38044,-0.42581 0.57067,-0.96332 0.57067,-1.61253 0,-0.64221 -0.19197,-1.17797 -0.5759,-1.60729 -0.38394,-0.4293 -0.86037,-0.64396 -1.42929,-0.64396 -0.5794,0 -1.05932,0.21466 -1.43976,0.64396 -0.37695,0.42583 -0.56543,0.96159 -0.56543,1.60729 0,0.65619 0.18673,1.19544 0.5602,1.61777 0.37346,0.42233 0.85512,0.63349 1.44499,0.63349" style="font-size:10.72227383px;font-variant:normal;font-weight:bold;font-stretch:normal;fill:#0073cc;font-family:Futura Md BT;-inkscape-font-specification:Futura Md BT Bold" id="path2900"/>
          <path d="m 425.33191,259.73785 c 0.31064,0.35252 0.61604,0.61604 0.91621,0.79056 0.30365,0.17451 0.60557,0.26177 0.90574,0.26177 0.27922,0 0.50784,-0.075 0.68585,-0.22512 0.18149,-0.15009 0.27224,-0.34031 0.27224,-0.57067 0,-0.25479 -0.0785,-0.45025 -0.2356,-0.58638 -0.15357,-0.13961 -0.50435,-0.28271 -1.05233,-0.42931 -0.75042,-0.20243 -1.28095,-0.46595 -1.59159,-0.79055 -0.31064,-0.3246 -0.46596,-0.76962 -0.46595,-1.33505 -10e-6,-0.73297 0.24432,-1.32981 0.73296,-1.79054 0.49214,-0.4642 1.12912,-0.69631 1.91096,-0.69632 0.42232,1e-5 0.82196,0.0576 1.19892,0.17277 0.38044,0.1117 0.73995,0.28273 1.07851,0.51308 l -0.65443,1.50258 c -0.23735,-0.20243 -0.48167,-0.35426 -0.73297,-0.45548 -0.24782,-0.10471 -0.49389,-0.15706 -0.73821,-0.15707 -0.2513,1e-5 -0.45549,0.0611 -0.61255,0.18324 -0.15706,0.11868 -0.2356,0.27226 -0.23559,0.46073 -1e-5,0.19197 0.068,0.34554 0.20418,0.46072 0.13961,0.11519 0.40662,0.22513 0.80103,0.32984 l 0.0942,0.0262 c 0.85163,0.23037 1.41183,0.48342 1.68059,0.75915 0.18149,0.18848 0.31936,0.41535 0.4136,0.68061 0.0942,0.26178 0.14135,0.55322 0.14136,0.87433 -10e-6,0.81324 -0.26702,1.46768 -0.80103,1.9633 -0.53402,0.49214 -1.24605,0.73821 -2.13608,0.73821 -0.53402,0 -1.02092,-0.0908 -1.4607,-0.27225 -0.43629,-0.18149 -0.85687,-0.46596 -1.26175,-0.85338 l 0.94239,-1.55494" style="font-size:10.72227383px;font-variant:normal;font-weight:bold;font-stretch:normal;fill:#0073cc;font-family:Futura Md BT;-inkscape-font-specification:Futura Md BT Bold" id="path2902"/>
          <path d="m 431.18518,254.54948 2.08372,0 0,3.72767 c 0,0.54798 0.014,0.94239 0.0419,1.18322 0.0279,0.23734 0.075,0.43629 0.14136,0.59684 0.0803,0.19546 0.21988,0.34555 0.41884,0.45026 0.19894,0.10122 0.44152,0.15183 0.72773,0.15182 0.2862,10e-6 0.52703,-0.0506 0.7225,-0.15182 0.19894,-0.10471 0.3403,-0.2548 0.42407,-0.45026 0.0663,-0.16055 0.11343,-0.3595 0.14136,-0.59684 0.0279,-0.24083 0.0419,-0.63524 0.0419,-1.18322 l 0,-0.52355 0,-3.20412 2.07849,0 0,4.05227 c -10e-6,0.84117 -0.0506,1.46245 -0.15183,1.86383 -0.10123,0.3979 -0.27225,0.73821 -0.51308,1.02092 -0.26178,0.31064 -0.62128,0.54449 -1.07851,0.70156 -0.45724,0.15357 -1.0122,0.23036 -1.66488,0.23036 -0.65619,0 -1.21289,-0.0768 -1.67012,-0.23036 -0.45375,-0.15707 -0.81325,-0.39092 -1.07851,-0.70156 -0.23734,-0.28271 -0.40837,-0.62302 -0.51308,-1.02092 -0.10122,-0.40138 -0.15183,-1.02266 -0.15183,-1.86383 l 0,-0.7958 0,-3.25647" style="font-size:10.72227383px;font-variant:normal;font-weight:bold;font-stretch:normal;fill:#0073cc;font-family:Futura Md BT;-inkscape-font-specification:Futura Md BT Bold" id="path2904"/>
          <path d="m 439.58813,262.21423 0,-7.66475 2.08896,0 0,5.87422 2.5968,0 0,1.79053 -4.68576,0" style="font-size:10.72227383px;font-variant:normal;font-weight:bold;font-stretch:normal;fill:#0073cc;font-family:Futura Md BT;-inkscape-font-specification:Futura Md BT Bold" id="path2906"/>
        </g>
      </g>
    </g>
  </g>
</svg>